<?xml version="1.0" encoding="UTF-8"?>
<svg version="1.1" xmlns="http://www.w3.org/2000/svg" width="512" height="512">
<path d="M0 0 C168.96 0 337.92 0 512 0 C512 168.96 512 337.92 512 512 C343.04 512 174.08 512 0 512 C0 343.04 0 174.08 0 0 Z " fill="#F0E6DA" transform="translate(0,0)"/>
<path d="M0 0 C4.29336467 0.02530889 8.5867452 0.02737854 12.88017297 0.03210163 C20.97927757 0.044446 29.07816161 0.07714965 37.17716986 0.11749959 C46.4107771 0.16248609 55.64439587 0.18427134 64.87808573 0.20428133 C83.84368332 0.24589175 102.80907674 0.31607427 121.77450585 0.40557575 C121.80927663 3.92508195 121.83019072 7.4445433 121.8487246 10.9641695 C121.85867455 11.95429035 121.86862451 12.9444112 121.87887597 13.96453571 C121.9089062 21.57482685 121.17984852 28.14144091 118.77450585 35.40557575 C118.41099023 36.51288044 118.0474746 37.62018513 117.67294335 38.7610445 C111.7972379 55.23197367 101.29853121 67.26183655 85.83700585 75.42901325 C78.03148813 79.07881552 69.90813956 79.69904947 61.42465234 79.66094685 C59.93502984 79.66637753 59.93502984 79.66637753 58.41531396 79.67191792 C56.27431106 79.67877384 54.13329083 79.68132455 51.99227738 79.67997074 C48.59934189 79.67900002 45.20671842 79.69201106 41.81382775 79.708951 C32.17257069 79.75506758 22.53134809 79.77983608 12.88998437 79.78643513 C6.97911708 79.79145494 1.06857937 79.81572236 -4.8421762 79.85176182 C-7.08795099 79.86154222 -9.33377119 79.86390142 -11.579561 79.85859013 C-14.72174369 79.85150414 -17.86294515 79.8688321 -21.00503516 79.8914156 C-21.92525962 79.88324314 -22.84548408 79.87507069 -23.79359412 79.86665058 C-30.34764593 79.95020125 -35.9582193 81.22908266 -40.78688884 85.92358685 C-45.05670105 90.90979017 -45.58288537 94.10537513 -45.49893165 100.5110445 C-45.09403943 104.79711787 -43.94716604 108.05095691 -41.22549415 111.40557575 C-36.83728977 114.83635372 -32.22261763 116.52354556 -26.68838477 116.54742146 C-25.3091886 116.55797314 -25.3091886 116.55797314 -23.90212989 116.56873798 C-22.90540259 116.57290226 -21.9086753 116.57706654 -20.88174415 116.581357 C-18.74501603 116.60459988 -16.6082973 116.62871886 -14.4715879 116.65362263 C-11.12403471 116.68836643 -7.77681681 116.71786669 -4.42910743 116.73150349 C13.90467307 116.82068892 31.02917432 118.21404416 48.02450585 125.59307575 C48.94070703 125.98035847 49.8569082 126.36764118 50.80087304 126.76665974 C71.77496269 135.86976752 91.83262783 150.56492191 103.77450585 170.40557575 C104.15703515 171.03028767 104.53956445 171.65499958 104.93368554 172.29864216 C121.93865256 200.34180644 126.82966405 231.36045342 119.77450585 263.40557575 C119.61885156 264.13985798 119.46319726 264.87414021 119.30282617 265.63067341 C112.857134 295.03512342 93.13369008 322.61099137 67.90731835 338.9641695 C54.45547149 347.34734267 39.46911942 354.60747441 23.77450585 357.40557575 C22.14641992 357.70914997 22.14641992 357.70914997 20.48544335 358.018857 C-14.20624417 363.57406187 -47.58438484 355.70818587 -76.41299415 335.78057575 C-99.73135252 318.85155679 -119.14676383 292.25189178 -123.99893165 263.49346638 C-124.15619727 262.49508747 -124.3134629 261.49670856 -124.47549415 260.46807575 C-124.73459571 258.97630817 -124.73459571 258.97630817 -124.99893165 257.45440388 C-126.18712772 250.17906043 -126.22549415 244.05602833 -126.22549415 236.40557575 C-112.36549415 236.40557575 -98.50549415 236.40557575 -84.22549415 236.40557575 C-82.90549415 242.67557575 -81.58549415 248.94557575 -80.22549415 255.40557575 C-73.11078626 275.64296707 -60.96892271 293.72475097 -41.22549415 303.40557575 C-36.94529391 304.95887422 -32.62649539 306.24270957 -28.22549415 307.40557575 C-27.57838477 307.60409138 -26.9312754 307.802607 -26.26455665 308.00713825 C-23.32186371 308.58214722 -20.46931592 308.49801397 -17.47549415 308.46807575 C-16.3050254 308.45905231 -15.13455665 308.45002888 -13.92861915 308.440732 C-13.0365879 308.42913044 -12.14455665 308.41752888 -11.22549415 308.40557575 C-12.69695899 308.1116695 -12.69695899 308.1116695 -14.1981504 307.81182575 C-30.55297688 304.29525199 -42.58790743 297.35084361 -54.22549415 285.40557575 C-55.11301368 284.53159138 -55.11301368 284.53159138 -56.0184629 283.63995075 C-69.82567986 268.98135043 -73.86006597 249.362169 -73.5731504 229.893857 C-73.13012957 219.226138 -69.26214051 209.51825685 -64.1434629 200.22588825 C-63.07540192 198.44772557 -63.07540192 198.44772557 -63.22549415 196.40557575 C-64.15748633 195.94409138 -65.08947852 195.482607 -66.0497129 195.00713825 C-91.86671902 181.92811335 -112.34995286 160.94565067 -122.22549415 133.40557575 C-130.44876904 107.23458947 -127.53157765 79.65196688 -115.27676368 55.39776325 C-102.16789636 30.55606392 -78.74708801 12.69116234 -52.22549415 4.40557575 C-35.12043574 -0.78281796 -17.67952817 -0.12210712 0 0 Z " fill="#129B65" transform="translate(259.22549414634705,83.5944242477417)"/>
<path d="M0 0 C15.4208374 11.62421786 24.76688425 28.78740764 27.90625 47.64453125 C30.13904278 66.41262908 25.66994783 86.6989593 13.98974609 101.85107422 C1.36716183 117.10354201 -15.72235051 127.87175227 -35.6796875 130.125 C-55.31659345 131.3435669 -73.58780513 127.21910745 -88.6875 113.99316406 C-91.09778111 111.77516041 -93.39365669 109.4714702 -95.6796875 107.125 C-96.27136719 106.54234375 -96.86304688 105.9596875 -97.47265625 105.359375 C-111.27987322 90.70077468 -115.31425932 71.08159325 -115.02734375 51.61328125 C-114.70713022 43.90270026 -112.58294891 37.21828687 -109.6796875 30.125 C-109.30714844 29.19429688 -108.93460938 28.26359375 -108.55078125 27.3046875 C-105.42784913 20.36242028 -100.71533296 14.77353652 -95.6796875 9.125 C-94.9784375 8.32835937 -94.2771875 7.53171875 -93.5546875 6.7109375 C-68.40339492 -20.19724684 -28.83042728 -20.17289373 0 0 Z " fill="#1B342F" transform="translate(300.6796875,261.875)"/>
<path d="M0 0 C3.87806185 3.60543887 6.75045117 7.36148263 9.4375 11.9375 C9.82510498 12.59500244 10.21270996 13.25250488 10.61206055 13.92993164 C18.95360035 28.37925728 24.46775223 44.22262452 25 61 C25.03996094 62.17175781 25.07992187 63.34351563 25.12109375 64.55078125 C25.61336798 92.89998524 16.15232171 116.9514701 -1 139 C-1.70898438 139.94230469 -2.41796875 140.88460937 -3.1484375 141.85546875 C-3.75945312 142.56316406 -4.37046875 143.27085937 -5 144 C-5.66 144 -6.32 144 -7 144 C-7 144.66 -7 145.32 -7 146 C-7.66 146 -8.32 146 -9 146 C-9 146.66 -9 147.32 -9 148 C-11.10847372 149.83554184 -13.22070524 151.55397428 -15.4375 153.25 C-16.08348145 153.74725586 -16.72946289 154.24451172 -17.39501953 154.75683594 C-19.25661155 156.18037892 -21.1269223 157.5916232 -23 159 C-23.78246094 159.598125 -24.56492187 160.19625 -25.37109375 160.8125 C-34.96498464 167.69466734 -46.68327737 171.94318412 -58 175 C-59.0725 175.37125 -60.145 175.7425 -61.25 176.125 C-84.84683656 183.63308436 -114.83505306 176.21916157 -136.30932617 165.51733398 C-165.94051357 150.13116875 -188.92075302 125.67322946 -200.11181641 93.91577148 C-201.61686298 88.97493277 -202.4579405 83.97144845 -203.25 78.875 C-203.42273438 77.85535156 -203.59546875 76.83570313 -203.7734375 75.78515625 C-204.7453461 69.77629279 -205.17710807 64.0849274 -205 58 C-204.67 58 -204.34 58 -204 58 C-203.79246094 58.85980469 -203.58492187 59.71960938 -203.37109375 60.60546875 C-197.44617444 83.33831816 -183.09335124 100.37799349 -163.04296875 112.30859375 C-160.04776497 114.03180313 -160.04776497 114.03180313 -156.9765625 115.34765625 C-153.37077823 117.3492924 -150.93202108 119.99476477 -148.1875 123 C-130.96094971 141.00300107 -107.39207205 149.62498424 -82.83984375 151.203125 C-58.22371632 151.60069368 -34.43079186 142.11127043 -16 126 C-15.32453125 125.41992188 -14.6490625 124.83984375 -13.953125 124.2421875 C-0.81575908 112.10326139 7.84094993 94.19968446 12 77 C12.16628906 76.39510742 12.33257812 75.79021484 12.50390625 75.16699219 C18.27249436 52.51498281 14.01094 27.28465513 3 7 C2.43410156 6.07960938 1.86820313 5.15921875 1.28515625 4.2109375 C0 2 0 2 0 0 Z " fill="#0C4835" transform="translate(338,265)"/>
<path d="M0 0 C1.65902344 0.73089844 1.65902344 0.73089844 3.3515625 1.4765625 C11.02763392 5.00861155 17.71036028 9.31584622 24 15 C24.57878906 15.44085938 25.15757812 15.88171875 25.75390625 16.3359375 C27.6915581 18.92352273 27.32263248 21.20096046 27.25 24.375 C27.23453125 25.49648438 27.2190625 26.61796875 27.203125 27.7734375 C27.02408578 30.61740668 26.64336078 33.22939793 26 36 C23.60468067 36.64779076 21.20878252 37.29329009 18.8125 37.9375 C17.80219727 38.21110352 17.80219727 38.21110352 16.77148438 38.49023438 C14.85084561 39.0055277 12.92549546 39.50316231 11 40 C10.0821875 40.2475 9.164375 40.495 8.21875 40.75 C4.65668415 41.15135953 2.72660191 39.09250844 0 37 C0.804375 37.804375 1.60875 38.60875 2.4375 39.4375 C6.95344391 43.95344391 6.18327565 46.85519593 6.1875 53.1875 C6.19974609 54.13431641 6.21199219 55.08113281 6.22460938 56.05664062 C6.24575022 66.15491897 6.24575022 66.15491897 4 70 C1.06497251 72.34078441 -2.09066995 74.13257602 -5.375 75.9375 C-6.23867188 76.44345703 -7.10234375 76.94941406 -7.9921875 77.47070312 C-14.36643019 81.07588823 -14.36643019 81.07588823 -17.07495117 80.75146484 C-20.28220096 79.49947818 -23.0756035 77.57231066 -25.9375 75.6875 C-26.54529297 75.29626953 -27.15308594 74.90503906 -27.77929688 74.50195312 C-28.97544804 73.72387421 -30.16348568 72.933161 -31.3425293 72.12939453 C-32.83871666 71.10989788 -34.3632516 70.13230878 -35.890625 69.16015625 C-38.84707296 66.13253455 -38.69684289 63.91365595 -38.8125 59.75 C-38.86019531 58.48671875 -38.90789062 57.2234375 -38.95703125 55.921875 C-38.97121094 54.95765625 -38.98539063 53.9934375 -39 53 C-37.84423181 65.08603311 -37.84423181 65.08603311 -41.37304688 69.85595703 C-46.02738264 74.61025705 -51.48618866 78.32412577 -57 82 C-71.51796357 72.61171689 -71.51796357 72.61171689 -72.63671875 68.87109375 C-73.11129474 65.12041253 -73.26300189 61.40005584 -73.3125 57.625 C-73.34150391 56.89539063 -73.37050781 56.16578125 -73.40039062 55.4140625 C-73.46537273 49.81560445 -72.10935542 46.648701 -69 42 C-69.474375 42.495 -69.94875 42.99 -70.4375 43.5 C-74.20358351 45.70453669 -77.73459379 45.24608113 -82 45 C-78.00326704 27.79501621 -67.12132988 15.00485391 -52.76171875 5.265625 C-49.56965247 3.80278275 -48.27659485 3.8946427 -45 5 C-44.34 5.33 -43.68 5.66 -43 6 C-43.66 4.68 -44.32 3.36 -45 2 C-32.53769459 -5.03001844 -13.04404783 -5.95213833 0 0 Z " fill="#1D332E" transform="translate(278,259)"/>
<path d="M0 0 C0.33 0 0.66 0 1 0 C1.95679532 19.66745934 -4.59269054 37.1953239 -17.1875 52.125 C-26.08947767 61.777566 -38.26960605 68.18895947 -51.43966866 69.18439865 C-54.07827574 69.25530627 -56.71032233 69.26722625 -59.34985352 69.25537109 C-60.34293518 69.25899155 -61.33601685 69.262612 -62.35919189 69.26634216 C-64.50019479 69.27319809 -66.64121502 69.27574879 -68.78222847 69.27439499 C-72.17516396 69.27342427 -75.56778743 69.28643531 -78.9606781 69.30337524 C-88.60193517 69.34949183 -98.24315777 69.37426033 -107.88452148 69.38085938 C-113.79538878 69.38587919 -119.70592648 69.41014661 -125.61668205 69.44618607 C-127.86245684 69.45596646 -130.10827704 69.45832566 -132.35406685 69.45301437 C-135.49624954 69.44592839 -138.637451 69.46325635 -141.77954102 69.48583984 C-142.69976547 69.47766739 -143.61998993 69.46949493 -144.56809998 69.46107483 C-151.12215178 69.5446255 -156.73272516 70.82350691 -161.56139469 75.51801109 C-165.83213153 80.50529418 -166.3529024 83.69977458 -166.27734375 90.10546875 C-165.80441411 95.0412555 -164.20716721 99.09968286 -160.3984375 102.37890625 C-158.60998222 103.6344981 -158.60998222 103.6344981 -156 105 C-160.41270159 106.5146573 -163.17608143 105.27243189 -167.33203125 103.4921875 C-173.5032525 100.04064062 -179.55428272 94.1300565 -182.40625 87.5546875 C-184.55208037 78.32196999 -184.3940618 68.23160773 -179.41796875 60.0078125 C-178.95003906 59.34523437 -178.48210937 58.68265625 -178 58 C-177.60425781 57.41992188 -177.20851562 56.83984375 -176.80078125 56.2421875 C-170.84924079 48.37270875 -162.53814039 44.60232995 -153 43 C-145.95641922 42.36908869 -138.8716971 42.45813342 -131.80593681 42.48357964 C-128.24341382 42.49632698 -124.68165235 42.48481259 -121.11915588 42.46754456 C-114.83891215 42.44096312 -108.55885835 42.43524437 -102.27856445 42.43664551 C-92.22565594 42.4388819 -82.17298214 42.42455512 -72.12016487 42.38105965 C-68.62827571 42.37128873 -65.13676311 42.37990214 -61.6448822 42.38975525 C-44.01597175 42.3718944 -28.53934772 40.87232411 -14.9765625 28.23046875 C-7.63232171 19.94279781 -2.80254975 10.7006445 0 0 Z " fill="#0C4634" transform="translate(380,94)"/>
<path d="M0 0 C0.33 0 0.66 0 1 0 C1.020625 1.19625 1.04125 2.3925 1.0625 3.625 C1.61972519 8.96929616 3.92871429 13.23362115 6.41357422 17.89257812 C8.11359912 21.11183023 9.46619683 24.0518778 10.1875 27.625 C11.07125953 31.29600112 12.09037691 32.67230153 15 35 C13.35 34.67 11.7 34.34 10 34 C9.7215625 35.4540625 9.7215625 35.4540625 9.4375 36.9375 C7.7682708 42.90773584 3.30923783 47.69076217 -1 52 C-1.60602665 54.36195411 -1.60602665 54.36195411 -2 57 C-2.77777778 61.77777778 -2.77777778 61.77777778 -5 64 C-4.67 60.04 -4.34 56.08 -4 52 C-5.65 51.34 -7.3 50.68 -9 50 C-11.50471952 48.4320694 -13.95512747 46.80057143 -16.40234375 45.14453125 C-19.8316547 43.63357169 -21.4197314 43.94066959 -25 45 C-27.45913264 46.27064315 -29.77645112 47.55551617 -32.125 49 C-39.42086929 53.43018815 -39.42086929 53.43018815 -43 54 C-42.979375 55.19625 -42.95875 56.3925 -42.9375 57.625 C-42.93310331 60.1443049 -43.05686771 62.31988087 -43.5 64.8125 C-44.2406592 69.5342024 -44.07638165 74.23039006 -44 79 C-50.36961108 79.82105762 -56.5212583 80.10064693 -62.9375 80 C-64.61321753 79.97455251 -66.28900937 79.95349842 -67.96484375 79.9375 C-69.05720337 79.92009766 -69.05720337 79.92009766 -70.17163086 79.90234375 C-72.09920186 79.88340418 -72.09920186 79.88340418 -74 81 C-74.556875 79.6696875 -74.556875 79.6696875 -75.125 78.3125 C-76.18779799 75.79156372 -77.324498 73.34192136 -78.53515625 70.88671875 C-79.35306641 69.21029297 -79.35306641 69.21029297 -80.1875 67.5 C-80.71730469 66.4378125 -81.24710938 65.375625 -81.79296875 64.28125 C-83.50893144 59.61649706 -83.87617918 55.95477599 -81.81640625 51.359375 C-79.73834831 48.66013415 -77.49733698 46.49692613 -74.9375 44.25 C-73.62072266 43.08210938 -73.62072266 43.08210938 -72.27734375 41.890625 C-70 40 -70 40 -68 39 C-67.52925051 36.47762812 -67.52925051 36.47762812 -67.3671875 33.43359375 C-67.28339844 32.30888672 -67.19960937 31.18417969 -67.11328125 30.02539062 C-67.03464844 28.84138672 -66.95601562 27.65738281 -66.875 26.4375 C-66.78863281 25.24962891 -66.70226562 24.06175781 -66.61328125 22.83789062 C-66.40035608 19.89242581 -66.19633543 16.94660965 -66 14 C-65.67 14 -65.34 14 -65 14 C-65.06453369 15.01199463 -65.06453369 15.01199463 -65.13037109 16.04443359 C-66.21084954 28.52112777 -66.21084954 28.52112777 -62.65917969 40.06982422 C-58.98548529 43.69509558 -54.64000105 45.83982173 -50 48 C-49.12859375 48.59167969 -48.2571875 49.18335938 -47.359375 49.79296875 C-45.1055153 51.17502953 -45.1055153 51.17502953 -42.734375 50.984375 C-38.64342758 49.51163393 -34.99821931 47.436988 -31.25 45.25 C-30.47011719 44.81945312 -29.69023437 44.38890625 -28.88671875 43.9453125 C-28.14550781 43.51476562 -27.40429688 43.08421875 -26.640625 42.640625 C-25.62790527 42.06103027 -25.62790527 42.06103027 -24.59472656 41.46972656 C-21.90578032 38.99154892 -22.08402264 36.05942976 -21.80712891 32.56811523 C-21.72011805 29.8578589 -21.66582791 27.14884458 -21.625 24.4375 C-21.58761719 23.49197266 -21.55023438 22.54644531 -21.51171875 21.57226562 C-21.4783915 18.9523735 -21.50095185 16.57311047 -22 14 C-24.35112214 11.43705428 -24.35112214 11.43705428 -27 10 C-27 9.34 -27 8.68 -27 8 C-26.2575 8.309375 -25.515 8.61875 -24.75 8.9375 C-20.19211294 10.69850182 -17.89785848 11.24209945 -13.1875 9.625 C-9.08910396 8.29529817 -5.27732263 7.46492637 -1 7 C-0.67 4.69 -0.34 2.38 0 0 Z " fill="#1B312D" transform="translate(305,288)"/>
<path d="M0 0 C2.66655965 1.05760166 4.91929224 2.45285983 7.328125 4.01171875 C8.66617187 4.86830078 8.66617187 4.86830078 10.03125 5.7421875 C11.03671875 6.42925781 12.0421875 7.11632812 13.078125 7.82421875 C13.7779248 8.2227002 14.47772461 8.62118164 15.19873047 9.03173828 C20.69056244 12.46337136 20.69056244 12.46337136 21.74804688 16.17651367 C21.93948055 18.93403335 21.87623626 21.56597932 21.703125 24.32421875 C21.68378906 25.24847656 21.66445313 26.17273438 21.64453125 27.125 C21.32343317 36.88358951 21.32343317 36.88358951 19.078125 40.82421875 C16.14516804 43.1673839 12.98723582 44.95691524 9.703125 46.76171875 C8.83945312 47.26767578 7.97578125 47.77363281 7.0859375 48.29492188 C0.71169481 51.90010698 0.71169481 51.90010698 -1.99682617 51.57568359 C-5.20407596 50.32369693 -7.9974785 48.39652941 -10.859375 46.51171875 C-11.46716797 46.12048828 -12.07496094 45.72925781 -12.70117188 45.32617188 C-13.89881998 44.54711922 -15.08637315 43.75230095 -16.26269531 42.94140625 C-17.74078195 41.94615545 -19.28748168 41.05457964 -20.83984375 40.1796875 C-24.20381909 36.37391427 -23.49109829 32.33828773 -23.296875 27.44921875 C-23.28269531 26.5159375 -23.26851562 25.58265625 -23.25390625 24.62109375 C-23.19856601 22.01641333 -23.06669779 19.4251613 -22.921875 16.82421875 C-22.91027344 15.71304687 -22.89867187 14.601875 -22.88671875 13.45703125 C-21.33832495 9.2318595 -17.98878453 8.02240866 -14.109375 6.07421875 C-13.38427734 5.68878906 -12.65917969 5.30335938 -11.91210938 4.90625 C-9.92597182 3.85594121 -7.92947677 2.83277455 -5.921875 1.82421875 C-5.22199463 1.45031006 -4.52211426 1.07640137 -3.80102539 0.69116211 C-1.921875 -0.17578125 -1.921875 -0.17578125 0 0 Z " fill="#EDE5DB" transform="translate(262.921875,288.17578125)"/>
<path d="M0 0 C5.31655403 2.5542863 10.04837374 5.36164645 12.11376953 11.08789062 C12.59629592 14.70866035 12.67702106 18.09930967 12.5625 21.75 C12.53893433 23.62437744 12.53893433 23.62437744 12.51489258 25.53662109 C12.12303797 32.47349451 11.28525648 37.29868492 6.11499023 42.14550781 C3.18722409 44.3927862 0.24209376 46.22609538 -3 48 C-3.99 48.66 -4.98 49.32 -6 50 C-20.5120686 40.61552897 -20.5120686 40.61552897 -21.640625 36.87890625 C-22.11537918 33.07571241 -22.22354196 29.32980127 -22.25 25.5 C-22.270625 24.75363281 -22.29125 24.00726563 -22.3125 23.23828125 C-22.35777143 16.8436917 -20.53374724 13.54014945 -16.15234375 8.921875 C-15.08589589 7.85937208 -14.01415611 6.80215735 -12.9375 5.75 C-12.39544922 5.20859375 -11.85339844 4.6671875 -11.29492188 4.109375 C-5.56761551 -1.55421596 -5.56761551 -1.55421596 0 0 Z " fill="#EDE6DB" transform="translate(227,291)"/>
<path d="M0 0 C3.82233521 1.03617521 6.83979294 2.79478696 10.1171875 4.94140625 C10.71015625 5.31845703 11.303125 5.69550781 11.9140625 6.08398438 C13.36246072 7.00675421 14.80314781 7.94160888 16.2421875 8.87890625 C16.03181438 11.92931654 15.69743846 14.85880388 15.2421875 17.87890625 C15.0771875 19.01199219 14.9121875 20.14507812 14.7421875 21.3125 C13.43716938 27.62688457 12.17802589 31.90647018 6.60644531 35.60717773 C1.38172162 38.67644621 -4.32884284 41.87890625 -10.5078125 41.87890625 C-15.45626515 40.35630543 -21.04705922 37.58965953 -24.7578125 33.87890625 C-24.91295341 30.82780171 -24.86587168 27.92534391 -24.7578125 24.87890625 C-24.80679687 23.75871094 -24.85578125 22.63851563 -24.90625 21.484375 C-24.80808238 17.3657972 -24.49070838 14.63929031 -22.7578125 10.87890625 C-18.37353754 7.10882926 -12.9417369 4.86658572 -7.62719727 2.70996094 C-1.39371939 -0.06119731 -1.39371939 -0.06119731 0 0 Z " fill="#ECE6DC" transform="translate(284.7578125,331.12109375)"/>
<path d="M0 0 C6.4716028 1.95190363 11.48171994 5.16912789 17 9 C17.89460938 9.5878125 18.78921875 10.175625 19.7109375 10.78125 C23.51162127 13.61078113 25.71541512 15.44514883 26.58984375 20.22265625 C26.64130093 25.29404755 26.08345704 30.0509886 25 35 C22.60468067 35.64779076 20.20878252 36.29329009 17.8125 36.9375 C16.80219727 37.21110352 16.80219727 37.21110352 15.77148438 37.49023438 C13.85084561 38.0055277 11.92549546 38.50316231 10 39 C8.700625 39.43892578 8.700625 39.43892578 7.375 39.88671875 C3.67024544 40.06342579 2.00193305 38.16933467 -0.8125 35.875 C-4.30679925 33.06292365 -7.71975154 30.49495225 -11.6875 28.375 C-14.51885836 26.62811638 -14.89301957 26.32094129 -16 23 C-16 21.68 -16 20.36 -16 19 C-16.01160156 17.89785156 -16.02320313 16.79570312 -16.03515625 15.66015625 C-16.05964121 12.43863506 -16.0435954 9.22121576 -16 6 C-14.274773 5.32320342 -12.54461061 4.65898 -10.8125 4 C-9.84957031 3.62875 -8.88664062 3.2575 -7.89453125 2.875 C-5.07817642 2.02363228 -2.91835561 1.82927353 0 2 C0 1.34 0 0.68 0 0 Z " fill="#EDE6DC" transform="translate(279,260)"/>
<path d="M0 0 C2.86559767 2.67618717 4.8227246 5.18664536 6.6875 8.625 C15.42642394 23.46591572 30.43374286 35.35305034 46.91625977 40.61132812 C54.02200629 42.44251016 61.26415988 42.44580802 68.5625 42.625 C69.85736328 42.66367187 71.15222656 42.70234375 72.48632812 42.7421875 C75.65741576 42.83579894 78.82850755 42.92153403 82 43 C79.51845161 45.50242874 77.01810164 47.86749591 74.3125 50.125 C70.14163663 53.73244468 66.51981809 57.72571217 62.8828125 61.86328125 C61.6325183 63.28218359 60.33725828 64.66274172 59 66 C48.30222898 60.09118294 38.00251905 54.35156767 29 46 C28.28021973 45.3495874 28.28021973 45.3495874 27.54589844 44.68603516 C15.17210534 33.42739147 5.88838836 19.69586963 0 4 C0 2.68 0 1.36 0 0 Z " fill="#14724C" transform="translate(138,215)"/>
<path d="M0 0 C1.33841709 0.65640073 2.67019619 1.32632051 4 2 C5.38832031 2.70189453 5.38832031 2.70189453 6.8046875 3.41796875 C15.12548343 8.21354198 17.86057914 12.51287356 20.71875 21.31640625 C21.71830503 24.19012696 22.64628143 26.2223784 24.1953125 28.76171875 C26 32 26 32 25.375 35.25 C24 38 24 38 22 41 C11.83622806 38.65451417 4.62767496 30.30640124 -1 22 C-5.68021188 14.20605373 -5.68021188 14.20605373 -7 10 C-5.72881065 6.02753329 -2.68805661 3.1124866 0 0 Z " fill="#C9C5BD" transform="translate(205,333)"/>
<path d="M0 0 C4.28951568 -0.733971 8.65518721 -0.55564698 13 -0.5625 C14.19496094 -0.59923828 15.38992187 -0.63597656 16.62109375 -0.67382812 C25.06177504 -0.71543061 30.26134699 0.95676694 37 6 C37.99 6.66 38.98 7.32 40 8 C39.50233954 11.68268739 38.93714041 13.65028767 36 16 C28.46382392 19.76808804 14.2945019 17.23764818 6.5703125 15 C2.64274778 13.47195051 -0.5698422 11.4406892 -4 9 C-2.94124926 5.59687262 -1.99097846 2.98646769 0 0 Z " fill="#C8C4BC" transform="translate(233,367)"/>
<path d="M0 0 C0 4.28253076 -0.28662588 4.82706511 -2.6875 8.0625 C-5.10224056 11.46890895 -6.74307091 14.67365073 -8.25 18.5625 C-10.60139289 24.00862934 -13.75113627 26.67224715 -18.51953125 30.07421875 C-21.02548571 32.01978655 -22.66530817 33.97483325 -24.5625 36.5 C-26.51901544 38.89649737 -27.37133272 39.87062795 -30.4296875 40.5 C-32.6784716 40.5 -34.78268914 40.36200994 -37 40 C-33.00326704 22.79501621 -22.12132988 10.00485391 -7.76171875 0.265625 C-4.605976 -1.18057111 -3.24585584 -1.06421503 0 0 Z " fill="#E9E3D9" transform="translate(233,264)"/>
<path d="M0 0 C2.475 0.99 2.475 0.99 5 2 C4.78962688 5.05041029 4.45525096 7.97989763 4 11 C3.835 12.13308594 3.67 13.26617187 3.5 14.43359375 C2.19498188 20.74797832 0.93583839 25.02756393 -4.63574219 28.72827148 C-9.86046588 31.79753996 -15.57103034 35 -21.75 35 C-26.61752015 33.50230149 -30.85503245 30.9428489 -35 28 C-35.33 27.34 -35.66 26.68 -36 26 C-35.31035156 25.84144531 -34.62070312 25.68289063 -33.91015625 25.51953125 C-19.59986138 21.96649507 -8.79386232 14.31052336 -0.9609375 1.65234375 C-0.48527344 0.83443359 -0.48527344 0.83443359 0 0 Z " fill="#CAC5BD" transform="translate(296,338)"/>
<path d="M0 0 C1.65 0.66 3.3 1.32 5 2 C5.96694029 14.32848874 0.61606128 26.88104908 -6.94140625 36.4609375 C-8.58567625 38.35433931 -10.25566725 40.19889903 -12 42 C-13.32 41.67 -14.64 41.34 -16 41 C-15.72627917 38.31753588 -15.38338677 35.66852375 -15 33 C-14.83886719 31.81535156 -14.67773438 30.63070313 -14.51171875 29.41015625 C-13.33777704 22.20085778 -12.20613344 17.13177484 -6.78515625 11.91796875 C-3.60389805 8.50003051 -1.88142557 4.23103999 0 0 Z " fill="#C7C3BB" transform="translate(315,322)"/>
<path d="M0 0 C1.33841709 0.65640073 2.67019619 1.32632051 4 2 C5.38832031 2.70189453 5.38832031 2.70189453 6.8046875 3.41796875 C16.19872642 8.83209042 19.26768436 14.89762243 22 25 C22 25.99 22 26.98 22 28 C15.86799698 26.5476835 10.78090071 23.00613024 6 19 C6 18.34 6 17.68 6 17 C5.01 16.67 4.02 16.34 3 16 C1.359375 14.109375 1.359375 14.109375 -0.25 11.75 C-0.79140625 10.98171875 -1.3328125 10.2134375 -1.890625 9.421875 C-3.25755178 6.43773908 -3.05061117 5.06943264 -2 2 C-1.34 1.34 -0.68 0.68 0 0 Z " fill="#EAE4DB" transform="translate(205,333)"/>
<path d="M0 0 C0.66 0 1.32 0 2 0 C9.29403309 12.78887136 14.68335279 24.96623864 14 40 C11.6875 39.5625 11.6875 39.5625 9 38 C7.625 34.25 7.625 34.25 6.9609375 31.8046875 C5.78922304 28.38480547 4.04802195 25.5091015 2.25 22.375 C-1.91192903 14.78134173 -1.40310113 8.41860677 0 0 Z " fill="#C3BFB7" transform="translate(307,282)"/>
<path d="M0 0 C0.83789062 -0.01611328 1.67578125 -0.03222656 2.5390625 -0.04882812 C8.5249066 -0.05346113 13.44863983 1.09748718 19 3.3125 C5.47375402 10.14551218 5.47375402 10.14551218 -1.765625 8.6796875 C-4.7340207 8.19187422 -7.61819648 8.19430272 -10.625 8.1875 C-11.68976563 8.18492187 -12.75453125 8.18234375 -13.8515625 8.1796875 C-16.97790294 8.31156787 -19.92821283 8.73135108 -23 9.3125 C-23.66 7.9925 -24.32 6.6725 -25 5.3125 C-17.02713659 0.81498731 -9.01104592 -0.03465787 0 0 Z " fill="#E6E2D8" transform="translate(258,255.6875)"/>
<path d="M0 0 C3.04903569 1.93304877 6.03188059 3.9451481 9 6 C10.010625 6.680625 11.02125 7.36125 12.0625 8.0625 C15.66386707 13.52263717 14.60241511 20.65524747 13.4765625 26.90625 C13.31929688 27.5971875 13.16203125 28.288125 13 29 C10.92573759 25.88860639 10.51407995 24.04898871 9.8125 20.4375 C8.46335305 14.67042106 6.17151651 10.77407153 2.5234375 6.15625 C1.02514971 4.03559652 0.42636282 2.53513028 0 0 Z " fill="#C3BFB6" transform="translate(291,266)"/>
<path d="M0 0 C0.66 0.99 1.32 1.98 2 3 C1.175 3.495 0.35 3.99 -0.5 4.5 C-4.8842669 7.39487479 -8.38562648 11.22050282 -12 15 C-12.66 14.34 -13.32 13.68 -14 13 C-9.75139368 7.7957801 -5.63370702 3.67915561 0 0 Z " fill="#40504A" transform="translate(222,287)"/>
<path d="M0 0 C-6.88728717 4.59152478 -15.82024199 6.35845035 -24 7 C-23 5 -23 5 -20.234375 4 C-19.08453125 3.67 -17.9346875 3.34 -16.75 3 C-11.93833332 1.60756592 -11.93833332 1.60756592 -7.25390625 -0.1484375 C-4.46383819 -1.20257067 -2.82452712 -0.80700775 0 0 Z " fill="#289D6B" transform="translate(303,434)"/>
<path d="M0 0 C5.0022709 4.39593504 9.29941134 9.89867006 12 16 C11.19140625 18.33984375 11.19140625 18.33984375 10 20 C7.69472283 17.69472283 6.8585629 15.67127097 5.5625 12.6875 C4.28410991 9.75000803 3.0055581 7.00914144 1.33984375 4.26953125 C0 2 0 2 0 0 Z " fill="#0D533B" transform="translate(338,265)"/>
<path d="M0 0 C0.33 0 0.66 0 1 0 C0.979375 0.94875 0.95875 1.8975 0.9375 2.875 C0.77448174 5.90666283 0.77448174 5.90666283 2 8 C-2.66666667 10.33333333 -7.33333333 12.66666667 -12 15 C-12.99 14.34 -13.98 13.68 -15 13 C-13.50146484 12.22076172 -13.50146484 12.22076172 -11.97265625 11.42578125 C-10.6687851 10.72225365 -9.36542588 10.01777669 -8.0625 9.3125 C-7.0734668 8.80299805 -7.0734668 8.80299805 -6.06445312 8.28320312 C-2.0875827 6.12438373 -2.0875827 6.12438373 -0.05859375 2.23046875 C-0.03925781 1.49441406 -0.01992188 0.75835937 0 0 Z " fill="#3D4C46" transform="translate(283,323)"/>
<path d="M0 0 C0.66 0.99 1.32 1.98 2 3 C-0.10251861 3.67184618 -2.20707763 4.33730968 -4.3125 5 C-6.07013672 5.556875 -6.07013672 5.556875 -7.86328125 6.125 C-11 7 -11 7 -14 7 C-14 8.98 -14 10.96 -14 13 C-14.33 13 -14.66 13 -15 13 C-15 10.36 -15 7.72 -15 5 C-10.05 3.35 -5.1 1.7 0 0 Z " fill="#3C4B45" transform="translate(277,259)"/>
<path d="M0 0 C3.5944772 1.72470431 6.86157026 3.80019492 10.1953125 5.9765625 C11.94417257 7.16443253 11.94417257 7.16443253 14 7 C13.67 8.65 13.34 10.3 13 12 C12.67 11.34 12.34 10.68 12 10 C11.319375 9.7525 10.63875 9.505 9.9375 9.25 C5.79551997 7.48745531 2.51726729 4.77541191 -1 2 C-0.67 1.34 -0.34 0.68 0 0 Z " fill="#313E3A" transform="translate(209,333)"/>
<path d="M0 0 C0.79921875 0.09345703 1.5984375 0.18691406 2.421875 0.28320312 C3.659375 0.43885742 3.659375 0.43885742 4.921875 0.59765625 C6.18257812 0.74750977 6.18257812 0.74750977 7.46875 0.90039062 C9.53723777 1.14719883 11.60467072 1.40281909 13.671875 1.66015625 C13.671875 1.99015625 13.671875 2.32015625 13.671875 2.66015625 C6.741875 2.66015625 -0.188125 2.66015625 -7.328125 2.66015625 C-7.658125 2.00015625 -7.988125 1.34015625 -8.328125 0.66015625 C-5.35825948 -0.23491192 -3.07172712 -0.37299544 0 0 Z " fill="#DBE1D3" transform="translate(242.328125,390.33984375)"/>
<path d="M0 0 C4.95 2.31 9.9 4.62 15 7 C14.01 7.495 14.01 7.495 13 8 C12.67 8.99 12.34 9.98 12 11 C11.61199219 10.57074219 11.22398437 10.14148438 10.82421875 9.69921875 C8.65537463 7.67898922 6.36992637 6.30709983 3.8125 4.8125 C2.91144531 4.28269531 2.01039063 3.75289063 1.08203125 3.20703125 C0.39496094 2.80871094 -0.29210937 2.41039062 -1 2 C-0.67 1.34 -0.34 0.68 0 0 Z " fill="#30403B" transform="translate(261,366)"/>
<path d="M0 0 C0.33 0 0.66 0 1 0 C1.10807131 1.93627769 1.1856225 3.87427756 1.25 5.8125 C1.29640625 6.89144531 1.3428125 7.97039062 1.390625 9.08203125 C1 12 1 12 -1.015625 13.88671875 C-1.67046875 14.25410156 -2.3253125 14.62148437 -3 15 C-3.66 14.67 -4.32 14.34 -5 14 C-3.35 9.38 -1.7 4.76 0 0 Z " fill="#194D39" transform="translate(380,94)"/>
<path d="M0 0 C3.60674662 1.76329835 6.5930807 3.97621699 9.8125 6.375 C8.8225 7.86 8.8225 7.86 7.8125 9.375 C6.18577315 8.25249844 4.56117418 7.12691267 2.9375 6 C1.58011719 5.06027344 1.58011719 5.06027344 0.1953125 4.1015625 C-2.1875 2.375 -2.1875 2.375 -4.1875 0.375 C-2.1875 -0.625 -2.1875 -0.625 0 0 Z " fill="#3A4844" transform="translate(269.1875,288.625)"/>
<path d="M0 0 C0.33 0 0.66 0 1 0 C1.53293835 1.74635165 2.05090663 3.49727652 2.5625 5.25 C2.85253906 6.22453125 3.14257812 7.1990625 3.44140625 8.203125 C4.0000513 11.00025684 4.05787671 12.38710234 3 15 C2.34 15.66 1.68 16.32 1 17 C0.1679418 11.27959989 -0.12036664 5.77759884 0 0 Z " fill="#16523C" transform="translate(133,323)"/>
<path d="M0 0 C2 3 2 3 1.7578125 5.69921875 C1.54898437 6.68535156 1.34015625 7.67148437 1.125 8.6875 C0.81949219 10.17830078 0.81949219 10.17830078 0.5078125 11.69921875 C0.34023438 12.45847656 0.17265625 13.21773438 0 14 C-0.99 13.67 -1.98 13.34 -3 13 C-2.01 8.71 -1.02 4.42 0 0 Z " fill="#364641" transform="translate(299,349)"/>
<path d="M0 0 C3.08089673 2.77280706 4.68775452 5.06326356 6 9 C5.01 9.66 4.02 10.32 3 11 C0 4.5 0 4.5 0 0 Z " fill="#1B7851" transform="translate(138,215)"/>
<path d="M0 0 C-0.33 1.32 -0.66 2.64 -1 4 C-0.34 4.33 0.32 4.66 1 5 C-0.65 5.33 -2.3 5.66 -4 6 C-4.66 4.68 -5.32 3.36 -6 2 C-2.25 0 -2.25 0 0 0 Z " fill="#D7D5CB" transform="translate(239,259)"/>
<path d="M0 0 C0.53625 0.226875 1.0725 0.45375 1.625 0.6875 C-5 4.6875 -5 4.6875 -8.375 4.6875 C-8.375 4.0275 -8.375 3.3675 -8.375 2.6875 C-2.95961538 -0.38942308 -2.95961538 -0.38942308 0 0 Z " fill="#2A3B36" transform="translate(269.375,337.3125)"/>
<path d="M0 0 C-3.28463659 2.18975773 -6.20696275 2.99806563 -10 4 C-9.1875 2.0625 -9.1875 2.0625 -8 0 C-4.71023192 -1.09658936 -3.28696233 -0.79953138 0 0 Z " fill="#37A679" transform="translate(303,434)"/>
<path d="M0 0 C2.88437779 1.29299694 4.87219421 2.65941363 7 5 C6.01 5.33 5.02 5.66 4 6 C2.35 4.35 0.7 2.7 -1 1 C-0.67 0.67 -0.34 0.34 0 0 Z " fill="#3C4A46" transform="translate(209,333)"/>
<path d="M0 0 C0.66 0.99 1.32 1.98 2 3 C-2.455 3.495 -2.455 3.495 -7 4 C-7 3.34 -7 2.68 -7 2 C-4.69 1.34 -2.38 0.68 0 0 Z " fill="#31433E" transform="translate(277,259)"/>
<path d="M0 0 C3.37503669 1.1858237 5.64722731 2.27573689 8 5 C7.01 5.33 6.02 5.66 5 6 C2.3125 4.1875 2.3125 4.1875 0 2 C0 1.34 0 0.68 0 0 Z " fill="#2B3B37" transform="translate(278,296)"/>
<path d="M0 0 C3.37503669 1.1858237 5.64722731 2.27573689 8 5 C5.03 4.505 5.03 4.505 2 4 C2 3.34 2 2.68 2 2 C1.34 2 0.68 2 0 2 C0 1.34 0 0.68 0 0 Z " fill="#194837" transform="translate(216,195)"/>
</svg>
