<svg version="1.1" id="Layer_1" xmlns="http://www.w3.org/2000/svg" xmlns:xlink="http://www.w3.org/1999/xlink" x="0px" y="0px"
	 width="100%" viewBox="0 0 200 200" enable-background="new 0 0 200 200" xml:space="preserve">
<path fill="#F0E6DA" opacity="1.000000" stroke="none" 
	d="
M128.000000,201.000000 
	C85.333336,201.000000 43.166672,201.000000 1.000006,201.000000 
	C1.000004,134.333344 1.000004,67.666679 1.000002,1.000015 
	C67.666656,1.000010 134.333313,1.000010 200.999969,1.000005 
	C200.999985,67.666649 200.999985,134.333298 201.000000,200.999969 
	C176.833328,201.000000 152.666672,201.000000 128.000000,201.000000 
M55.693462,87.737732 
	C56.036671,88.245682 56.379883,88.753639 56.660866,89.146545 
	C56.660866,89.146545 56.568283,89.238945 56.664238,89.952972 
	C61.100269,99.336143 68.169785,105.956535 77.718140,110.803032 
	C69.475784,128.311768 73.280785,141.013306 89.888824,151.539917 
	C90.415184,151.873535 90.747513,152.513275 90.810600,153.621674 
	C90.194458,153.608368 89.503044,153.775787 88.973282,153.555130 
	C78.285881,149.103439 72.170593,141.017487 69.851921,129.766281 
	C69.571388,128.404999 68.074615,126.352303 67.000786,126.260155 
	C62.432980,125.868149 57.812183,126.093582 52.478779,126.093582 
	C53.074070,128.804825 53.516548,130.820068 53.332676,133.212646 
	C53.542217,134.161774 53.772011,135.106934 53.958363,136.060593 
	C59.385929,163.835663 90.492897,181.160751 117.616341,171.179626 
	C118.135262,170.841614 118.654182,170.503586 119.076157,170.127289 
	C119.076157,170.127289 119.065819,170.231003 119.689133,170.328491 
	C120.214256,170.032928 120.739380,169.737350 121.343140,169.356903 
	C121.343140,169.356903 121.313210,169.468674 121.893257,169.494675 
	C122.359161,169.176926 122.825058,168.859161 123.322144,168.521271 
	C123.322144,168.521271 123.345535,168.553848 124.060799,168.453964 
	C143.158478,158.543137 153.274963,137.961441 149.271362,117.163750 
	C145.213837,96.085930 129.177917,81.781586 107.035675,79.761009 
	C100.755432,79.187920 94.421150,79.207085 87.719994,78.373207 
	C84.684235,76.240883 83.177315,73.402672 84.521843,69.783592 
	C85.915337,66.032692 88.984009,64.779861 92.870262,64.808464 
	C104.011688,64.890465 115.156654,64.989716 126.295494,64.801575 
	C139.856049,64.572533 150.017227,53.734764 149.088913,40.458649 
	C149.408920,38.403275 149.728943,36.347900 150.095505,33.993576 
	C129.685196,33.993576 110.080490,33.961723 90.476234,34.039280 
	C88.346222,34.047707 86.192795,34.574528 84.094017,35.052963 
	C61.329361,40.242321 47.478928,64.009827 54.920189,85.659477 
	C55.212738,86.187729 55.505291,86.715981 55.820282,87.078873 
	C55.820282,87.078873 55.653942,87.092224 55.693462,87.737732 
z"/>
<path fill="#139B65" opacity="1.000000" stroke="none" 
	d="
M54.942871,85.021698 
	C47.478928,64.009827 61.329361,40.242321 84.094017,35.052963 
	C86.192795,34.574528 88.346222,34.047707 90.476234,34.039280 
	C110.080490,33.961723 129.685196,33.993576 150.095505,33.993576 
	C149.728943,36.347900 149.408920,38.403275 148.720764,40.989983 
	C145.878479,46.836983 142.305695,51.263069 136.614273,53.054459 
	C132.884552,54.228390 128.826813,54.756824 124.901031,54.836308 
	C113.437241,55.068409 101.963928,54.802315 90.498390,54.985115 
	C83.665054,55.094063 78.346138,60.051373 77.948524,66.119835 
	C77.479561,73.277298 81.088005,77.834328 88.111649,78.954636 
	C94.421150,79.207085 100.755432,79.187920 107.035675,79.761009 
	C129.177917,81.781586 145.213837,96.085930 149.271362,117.163750 
	C153.274963,137.961441 143.158478,158.543137 123.669098,168.140015 
	C124.324203,166.802414 125.280495,165.661484 126.431648,164.773026 
	C139.717209,154.519272 145.920685,136.288040 141.442886,120.158531 
	C140.845245,118.005791 139.649216,116.019180 138.730301,113.955635 
	C138.288147,114.138702 137.845993,114.321770 137.403839,114.504845 
	C137.473709,115.100815 137.465286,115.718689 137.624969,116.289536 
	C141.074860,128.623001 138.204605,139.769196 130.569992,149.594940 
	C122.032455,160.582748 110.403419,164.610413 96.670975,163.209869 
	C82.359062,161.750244 73.628868,150.800201 62.928074,143.314133 
	C59.280151,140.762100 56.911957,136.380798 53.959026,132.835327 
	C53.516548,130.820068 53.074070,128.804825 52.478779,126.093582 
	C57.812183,126.093582 62.432980,125.868149 67.000786,126.260155 
	C68.074615,126.352303 69.571388,128.404999 69.851921,129.766281 
	C72.170593,141.017487 78.285881,149.103439 88.973282,153.555130 
	C89.503044,153.775787 90.194458,153.608368 91.343269,153.333069 
	C102.055931,156.257538 111.195038,153.839478 119.449348,147.613007 
	C128.000412,141.162689 131.521759,127.759094 127.843567,116.731071 
	C124.143440,105.637337 114.417984,97.651199 103.361488,98.115692 
	C97.247643,98.372536 91.222809,100.748009 84.695976,102.110275 
	C76.029518,102.611313 68.857468,100.070496 62.640610,94.771454 
	C60.557808,92.996140 58.589127,91.086945 56.568283,89.238945 
	C56.568283,89.238945 56.660866,89.146545 56.744164,88.863770 
	C56.436287,88.084740 56.045113,87.588478 55.653942,87.092224 
	C55.653942,87.092224 55.820282,87.078873 55.835247,86.839035 
	C55.547764,86.073364 55.245319,85.547531 54.942871,85.021698 
z"/>
<path fill="#0E4A37" opacity="1.000000" stroke="none" 
	d="
M53.645851,133.023987 
	C56.911957,136.380798 59.280151,140.762100 62.928074,143.314133 
	C73.628868,150.800201 82.359062,161.750244 96.670975,163.209869 
	C110.403419,164.610413 122.032455,160.582748 130.569992,149.594940 
	C138.204605,139.769196 141.074860,128.623001 137.624969,116.289536 
	C137.465286,115.718689 137.473709,115.100815 137.403839,114.504845 
	C137.845993,114.321770 138.288147,114.138702 138.730301,113.955635 
	C139.649216,116.019180 140.845245,118.005791 141.442886,120.158531 
	C145.920685,136.288040 139.717209,154.519272 126.431648,164.773026 
	C125.280495,165.661484 124.324203,166.802414 123.311462,168.189957 
	C123.345535,168.553848 123.322144,168.521271 122.984009,168.371918 
	C122.201645,168.637924 121.757423,169.053299 121.313210,169.468674 
	C121.313210,169.468674 121.343140,169.356903 120.985153,169.268097 
	C120.106720,169.529877 119.586273,169.880447 119.065826,170.231018 
	C119.065819,170.231003 119.076157,170.127289 118.795258,170.097076 
	C117.996529,170.426788 117.478691,170.786728 116.960861,171.146667 
	C90.492897,181.160751 59.385929,163.835663 53.958363,136.060593 
	C53.772011,135.106934 53.542217,134.161774 53.645851,133.023987 
z"/>
<path fill="#104937" opacity="1.000000" stroke="none" 
	d="
M87.915817,78.663918 
	C81.088005,77.834328 77.479561,73.277298 77.948524,66.119835 
	C78.346138,60.051373 83.665054,55.094063 90.498390,54.985115 
	C101.963928,54.802315 113.437241,55.068409 124.901031,54.836308 
	C128.826813,54.756824 132.884552,54.228390 136.614273,53.054459 
	C142.305695,51.263069 145.878479,46.836983 148.592941,41.301521 
	C150.017227,53.734764 139.856049,64.572533 126.295494,64.801575 
	C115.156654,64.989716 104.011688,64.890465 92.870262,64.808464 
	C88.984009,64.779861 85.915337,66.032692 84.521843,69.783592 
	C83.177315,73.402672 84.684235,76.240883 87.915817,78.663918 
z"/>
<path fill="#1F3933" opacity="1.000000" stroke="none" 
	d="
M85.157852,102.168457 
	C91.222809,100.748009 97.247643,98.372536 103.361488,98.115692 
	C114.417984,97.651199 124.143440,105.637337 127.843567,116.731071 
	C131.521759,127.759094 128.000412,141.162689 119.449348,147.613007 
	C111.195038,153.839478 102.055931,156.257538 91.523117,153.027405 
	C90.747513,152.513275 90.415184,151.873535 89.888824,151.539917 
	C73.280785,141.013306 69.475784,128.311768 77.998245,110.330498 
	C80.571518,107.294792 82.864685,104.731621 85.157852,102.168457 
M90.398994,146.983139 
	C90.398994,146.983139 90.523102,146.933762 90.806770,147.667770 
	C95.360504,151.216675 101.799034,152.995392 105.524857,149.948563 
	C108.873817,147.209900 113.087410,145.998138 116.516792,142.931152 
	C117.038284,142.888077 117.559784,142.845001 118.872894,142.869781 
	C124.216690,138.492477 126.412537,132.863129 126.062698,125.303391 
	C125.751373,120.265076 125.543419,115.185577 120.494263,111.970367 
	C120.494263,111.970367 120.249931,111.998711 120.043579,111.315163 
	C118.692505,109.639091 117.341431,107.963020 115.562805,105.702507 
	C113.353470,104.865456 111.144142,104.028404 108.810181,102.484238 
	C107.916908,102.175217 107.023643,101.866203 105.388672,101.232483 
	C101.932632,101.517403 98.476593,101.802322 94.314034,102.059532 
	C93.347862,102.716057 92.381699,103.372581 91.469032,103.968796 
	C91.469032,103.968796 91.547287,103.949417 90.742874,103.952225 
	C90.488770,104.313805 90.234665,104.675377 89.992439,104.995758 
	C89.992439,104.995758 90.022110,105.026688 89.438950,104.491165 
	C83.680405,107.766769 79.666267,112.396263 78.226013,119.527550 
	C78.705193,119.440575 79.184364,119.353607 80.175659,119.562996 
	C80.743187,119.418510 81.310707,119.274033 81.768745,119.906639 
	C80.122490,124.796951 83.099754,130.514648 78.981384,135.697495 
	C81.298210,140.927826 84.201752,145.574158 90.398994,146.983139 
z"/>
<path fill="#18754F" opacity="1.000000" stroke="none" 
	d="
M84.695976,102.110268 
	C82.864685,104.731621 80.571518,107.294792 77.986969,109.929001 
	C68.169785,105.956535 61.100269,99.336143 56.616261,89.595963 
	C58.589127,91.086945 60.557808,92.996140 62.640610,94.771454 
	C68.857468,100.070496 76.029518,102.611313 84.695976,102.110268 
z"/>
<path fill="#139B65" opacity="1.000000" stroke="none" 
	d="
M117.288597,171.163147 
	C117.478691,170.786728 117.996529,170.426788 118.843735,170.116211 
	C118.654182,170.503586 118.135262,170.841614 117.288597,171.163147 
z"/>
<path fill="#139B65" opacity="1.000000" stroke="none" 
	d="
M119.377480,170.279755 
	C119.586273,169.880447 120.106720,169.529877 120.945831,169.310547 
	C120.739380,169.737350 120.214256,170.032928 119.377480,170.279755 
z"/>
<path fill="#139B65" opacity="1.000000" stroke="none" 
	d="
M121.603233,169.481674 
	C121.757423,169.053299 122.201645,168.637924 122.968414,168.381989 
	C122.825058,168.859161 122.359161,169.176926 121.603233,169.481674 
z"/>
<path fill="#18754F" opacity="1.000000" stroke="none" 
	d="
M54.931534,85.340591 
	C55.245319,85.547531 55.547764,86.073364 55.824028,86.921715 
	C55.505291,86.715981 55.212738,86.187729 54.931534,85.340591 
z"/>
<path fill="#18754F" opacity="1.000000" stroke="none" 
	d="
M55.673702,87.414978 
	C56.045113,87.588478 56.436287,88.084740 56.775276,88.921295 
	C56.379883,88.753639 56.036671,88.245682 55.673702,87.414978 
z"/>
<path fill="#EAE4DA" opacity="1.000000" stroke="none" 
	d="
M95.020554,102.087242 
	C98.476593,101.802322 101.932632,101.517403 105.755646,101.737617 
	C107.060013,102.558960 107.997414,102.875160 108.934807,103.191360 
	C111.144142,104.028404 113.353470,104.865456 115.787872,106.343323 
	C117.245750,108.990028 118.478577,110.995926 119.809937,113.377846 
	C118.915665,118.004318 115.448875,117.086777 112.237976,117.150589 
	C111.118202,116.998245 110.279640,116.986542 109.441078,116.974831 
	C109.913345,117.305328 110.385612,117.635818 111.111160,118.372742 
	C111.557907,122.454254 111.751381,126.129326 111.950951,129.920197 
	C113.172501,130.771790 114.638191,131.793579 116.060448,133.182739 
	C113.733627,139.763718 108.739647,142.231613 102.425011,142.944153 
	C102.739868,139.857941 103.297668,137.037827 103.780617,134.596146 
	C100.651581,132.259460 97.820419,130.145203 94.993881,127.579681 
	C94.999992,124.145012 95.001465,121.161613 95.316345,118.012100 
	C98.413872,116.272003 101.197998,114.698029 103.982208,113.124199 
	C102.861336,104.110596 102.844978,104.091492 95.882034,103.578888 
	C95.516769,102.936340 95.268661,102.511787 95.020554,102.087242 
M106.483177,114.725090 
	C106.731270,114.986061 106.979362,115.247025 107.227455,115.507988 
	C107.335434,115.405312 107.443405,115.302643 107.551384,115.199966 
	C107.303177,114.939049 107.054970,114.678123 106.483177,114.725090 
z"/>
<path fill="#C8C4BB" opacity="1.000000" stroke="none" 
	d="
M102.667938,143.210236 
	C108.739647,142.231613 113.733627,139.763718 116.379379,133.265579 
	C117.596245,133.313263 118.450752,133.645493 119.452347,133.880875 
	C119.776741,133.622437 119.906967,133.429123 120.298691,133.013443 
	C122.202171,130.563263 123.797089,128.303741 125.421768,126.049362 
	C125.451530,126.054497 125.572128,126.026176 125.572128,126.026176 
	C126.412537,132.863129 124.216690,138.492477 118.464996,142.387909 
	C118.043564,141.607742 118.030029,141.309448 118.202682,140.887207 
	C118.378136,140.439621 118.367401,140.115997 118.356674,139.792358 
	C118.231934,140.189011 118.107193,140.585648 117.679169,141.032104 
	C116.914619,141.678650 116.453339,142.275375 115.992065,142.872101 
	C113.087410,145.998138 108.873817,147.209900 105.524857,149.948563 
	C101.799034,152.995392 95.360504,151.216675 90.783035,147.316742 
	C90.759300,146.965698 90.995399,146.998444 91.224564,146.803802 
	C91.586342,146.235977 91.718948,145.862778 92.139572,145.174011 
	C95.824051,144.791245 99.220688,144.728485 102.614655,144.597061 
	C102.650269,144.595673 102.650955,143.692444 102.667938,143.210236 
z"/>
<path fill="#EAE3D8" opacity="1.000000" stroke="none" 
	d="
M79.071564,134.978714 
	C83.099754,130.514648 80.122490,124.796951 81.870895,119.468597 
	C81.973038,119.030556 82.068451,118.932137 82.398186,118.915352 
	C84.147629,117.602066 85.567337,116.305565 87.148338,114.806305 
	C87.404732,114.459351 87.499825,114.315155 87.949142,114.165237 
	C89.865128,115.214256 91.426888,116.269005 92.990845,117.762161 
	C92.987717,121.777962 92.982399,125.355339 92.832001,129.216888 
	C91.228302,130.707779 89.769669,131.914490 87.990631,133.074280 
	C86.862221,133.104385 86.054207,133.181396 85.246201,133.258423 
	C85.777328,133.839462 86.308456,134.420517 86.961975,135.339020 
	C87.801041,137.439575 88.517715,139.202652 88.855446,140.998718 
	C85.341522,139.014038 82.206543,136.996384 79.071564,134.978714 
z"/>
<path fill="#233733" opacity="1.000000" stroke="none" 
	d="
M119.305252,133.977722 
	C118.450752,133.645493 117.596245,133.313263 116.422813,132.898193 
	C114.638191,131.793579 113.172501,130.771790 111.950951,129.920197 
	C111.751381,126.129326 111.557907,122.454254 111.565460,118.299805 
	C112.017387,117.644035 112.268288,117.467628 112.519188,117.291222 
	C115.448875,117.086777 118.915665,118.004318 119.945953,113.127808 
	C120.072266,112.334068 120.161102,112.166389 120.249931,111.998711 
	C120.249931,111.998711 120.494263,111.970367 120.663300,112.382324 
	C122.352234,117.210930 123.872124,121.627586 125.392006,126.044235 
	C123.797089,128.303741 122.202171,130.563263 120.056435,132.992950 
	C119.505615,133.163147 119.166779,133.511719 119.166779,133.511719 
	C119.166779,133.511719 119.305252,133.977722 119.305252,133.977722 
z"/>
<path fill="#1E332F" opacity="1.000000" stroke="none" 
	d="
M92.988647,117.323753 
	C91.426888,116.269005 89.865128,115.214256 87.756134,113.904953 
	C88.146629,110.775818 89.084366,107.901253 90.022110,105.026688 
	C90.022110,105.026688 89.992439,104.995758 90.429855,105.310394 
	C91.093948,105.066490 91.320618,104.507957 91.547287,103.949417 
	C91.547287,103.949417 91.469032,103.968796 91.905907,104.001785 
	C93.561584,103.955482 94.780380,103.876190 95.999184,103.796890 
	C102.844978,104.091492 102.861336,104.110596 103.982208,113.124199 
	C101.197998,114.698029 98.413872,116.272003 95.060074,117.912659 
	C93.989815,117.760811 93.489235,117.542282 92.988647,117.323753 
z"/>
<path fill="#EAE3D8" opacity="1.000000" stroke="none" 
	d="
M89.730530,104.758926 
	C89.084366,107.901253 88.146629,110.775818 87.401909,113.910675 
	C87.499825,114.315155 87.404732,114.459351 86.786789,114.798088 
	C84.865448,116.305801 83.466949,117.618965 82.068451,118.932137 
	C82.068451,118.932137 81.973038,119.030556 81.925636,119.080055 
	C81.310707,119.274033 80.743187,119.418510 79.552322,119.327461 
	C78.680931,119.058441 78.432877,119.024948 78.184814,118.991455 
	C79.666267,112.396263 83.680405,107.766769 89.730530,104.758926 
z"/>
<path fill="#C3C0B8" opacity="1.000000" stroke="none" 
	d="
M79.026474,135.338104 
	C82.206543,136.996384 85.341522,139.014038 89.141281,141.201935 
	C90.222054,142.938278 90.638031,144.504410 90.770233,146.040833 
	C90.419640,146.358887 90.352829,146.706635 90.286011,147.054398 
	C84.201752,145.574158 81.298210,140.927826 79.026474,135.338104 
z"/>
<path fill="#C0BDB5" opacity="1.000000" stroke="none" 
	d="
M125.421768,126.049362 
	C123.872124,121.627586 122.352234,117.210930 120.785187,112.365944 
	C125.543419,115.185577 125.751373,120.265076 125.817413,125.664780 
	C125.572128,126.026176 125.451530,126.054497 125.421768,126.049362 
z"/>
<path fill="#E8E1D7" opacity="1.000000" stroke="none" 
	d="
M120.146759,111.656937 
	C120.161102,112.166389 120.072266,112.334068 119.847412,112.751785 
	C118.478577,110.995926 117.245750,108.990028 116.001648,106.635544 
	C117.341431,107.963020 118.692505,109.639091 120.146759,111.656937 
z"/>
<path fill="#D7D4CA" opacity="1.000000" stroke="none" 
	d="
M108.872498,102.837799 
	C107.997414,102.875160 107.060013,102.558960 106.126495,101.899963 
	C107.023643,101.866203 107.916908,102.175217 108.872498,102.837799 
z"/>
<path fill="#D7D4CA" opacity="1.000000" stroke="none" 
	d="
M95.882034,103.578896 
	C94.780380,103.876190 93.561584,103.955482 91.879150,104.031944 
	C92.381699,103.372581 93.347862,102.716057 94.667297,102.073387 
	C95.268661,102.511787 95.516769,102.936340 95.882034,103.578896 
z"/>
<path fill="#BEBCB3" opacity="1.000000" stroke="none" 
	d="
M118.016495,141.011139 
	C118.030029,141.309448 118.043564,141.607742 118.069183,142.353973 
	C117.559784,142.845001 117.038284,142.888077 116.254425,142.901627 
	C116.453339,142.275375 116.914619,141.678650 117.687225,141.040192 
	C117.998550,140.998489 118.016495,141.011139 118.016495,141.011139 
z"/>
<path fill="#233833" opacity="1.000000" stroke="none" 
	d="
M90.342499,147.018768 
	C90.352829,146.706635 90.419640,146.358887 90.747635,146.016281 
	C91.008820,146.021439 90.958817,145.977249 90.944145,146.233398 
	C90.951454,146.659195 90.973427,146.828812 90.995399,146.998444 
	C90.995399,146.998444 90.759300,146.965698 90.641205,146.949738 
	C90.523102,146.933762 90.398994,146.983139 90.342499,147.018768 
z"/>
<path fill="#E1DCD2" opacity="1.000000" stroke="none" 
	d="
M78.205414,119.259506 
	C78.432877,119.024948 78.680931,119.058441 79.296265,119.179276 
	C79.184364,119.353607 78.705193,119.440575 78.205414,119.259506 
z"/>
<path fill="#EAE3D8" opacity="1.000000" stroke="none" 
	d="
M91.145081,103.950821 
	C91.320618,104.507957 91.093948,105.066490 90.423920,105.330994 
	C90.234665,104.675377 90.488770,104.313805 91.145081,103.950821 
z"/>
<path fill="#233833" opacity="1.000000" stroke="none" 
	d="
M91.031418,146.045990 
	C90.638031,144.504410 90.222054,142.938278 89.520233,141.168945 
	C88.517715,139.202652 87.801041,137.439575 87.076813,135.055496 
	C87.483185,133.996750 87.897110,133.558975 88.311035,133.121201 
	C89.769669,131.914490 91.228302,130.707779 93.105560,129.135574 
	C94.012543,128.523712 94.500900,128.277328 94.989258,128.030960 
	C97.820419,130.145203 100.651581,132.259460 103.780617,134.596146 
	C103.297668,137.037827 102.739868,139.857941 102.425003,142.944153 
	C102.650955,143.692444 102.650269,144.595673 102.614655,144.597061 
	C99.220688,144.728485 95.824051,144.791245 91.899803,145.266068 
	C91.234291,145.774872 91.096558,145.876053 90.958817,145.977249 
	C90.958817,145.977249 91.008820,146.021439 91.031418,146.045990 
z"/>
<path fill="#E7E0D6" opacity="1.000000" stroke="none" 
	d="
M94.993881,127.579681 
	C94.500900,128.277328 94.012543,128.523712 93.250626,128.851410 
	C92.982399,125.355339 92.987717,121.777962 92.990845,117.762161 
	C93.489235,117.542282 93.989815,117.760811 94.746674,118.078781 
	C95.001465,121.161613 94.999992,124.145012 94.993881,127.579681 
z"/>
<path fill="#E8E1D7" opacity="1.000000" stroke="none" 
	d="
M112.237976,117.150589 
	C112.268288,117.467628 112.017387,117.644035 111.312180,117.893379 
	C110.385612,117.635818 109.913345,117.305328 109.441078,116.974831 
	C110.279640,116.986542 111.118202,116.998245 112.237976,117.150589 
z"/>
<path fill="#E8E1D7" opacity="1.000000" stroke="none" 
	d="
M106.644974,114.571144 
	C107.054970,114.678123 107.303177,114.939049 107.551384,115.199966 
	C107.443405,115.302643 107.335434,115.405312 107.227455,115.507988 
	C106.979362,115.247025 106.731270,114.986061 106.644974,114.571144 
z"/>
<path fill="#BEBCB3" opacity="1.000000" stroke="none" 
	d="
M117.990501,140.990387 
	C118.107193,140.585648 118.231934,140.189011 118.356674,139.792358 
	C118.367401,140.115997 118.378136,140.439621 118.202682,140.887207 
	C118.016495,141.011139 117.998550,140.998489 117.990501,140.990387 
z"/>
<path fill="#BEBCB3" opacity="1.000000" stroke="none" 
	d="
M119.452347,133.880875 
	C119.305252,133.977722 119.166779,133.511719 119.166779,133.511719 
	C119.166779,133.511719 119.505615,133.163147 119.747864,133.183624 
	C119.906967,133.429123 119.776741,133.622437 119.452347,133.880875 
z"/>
<path fill="#C3C0B8" opacity="1.000000" stroke="none" 
	d="
M90.944145,146.233398 
	C91.096558,145.876053 91.234291,145.774872 91.611786,145.581635 
	C91.718948,145.862778 91.586342,146.235977 91.224564,146.803802 
	C90.973427,146.828812 90.951454,146.659195 90.944145,146.233398 
z"/>
<path fill="#E1DCD2" opacity="1.000000" stroke="none" 
	d="
M82.398186,118.915352 
	C83.466949,117.618965 84.865448,116.305801 86.625496,115.000854 
	C85.567337,116.305565 84.147629,117.602066 82.398186,118.915352 
z"/>
<path fill="#E7E0D6" opacity="1.000000" stroke="none" 
	d="
M87.990631,133.074280 
	C87.897110,133.558975 87.483185,133.996750 86.954422,134.718033 
	C86.308456,134.420517 85.777328,133.839462 85.246201,133.258423 
	C86.054207,133.181396 86.862221,133.104385 87.990631,133.074280 
z"/>
</svg>